<?xml version="1.0" encoding="utf-8"?><!-- Uploaded to: SVG Repo, www.svgrepo.com, Generator: SVG Repo Mixer Tools -->
<svg width="800px" height="800px" viewBox="-1.5 0 20 20" xmlns="http://www.w3.org/2000/svg">
  <g id="hand-grip" transform="translate(-3.5 -2)">
    <path id="secondary" fill="#2ca9bc" d="M18.16,12.64A1,1,0,0,0,17,11.82l-2,.35a1,1,0,0,0-.81,1.15L15.55,21l3.95-.69ZM4.5,20.31,8.45,21l1.34-7.68A1,1,0,0,0,9,12.17l-2-.35a1,1,0,0,0-1.16.82Z"/>
    <path id="primary" d="M15,6l1.05,6M12,3a3,3,0,1,0,3,3A3,3,0,0,0,12,3ZM9,6,8,12m11.5,8.31L15.55,21l-1.34-7.68A1,1,0,0,1,15,12.17l2-.35a1,1,0,0,1,1.16.82ZM5.84,12.64A1,1,0,0,1,7,11.82l2,.35a1,1,0,0,1,.81,1.15L8.45,21,4.5,20.31Z" fill="none" stroke="#000000" stroke-linecap="round" stroke-linejoin="round" stroke-width="2"/>
  </g>
</svg>