<?xml version="1.0" encoding="utf-8"?><!-- Uploaded to: SVG Repo, www.svgrepo.com, Generator: SVG Repo Mixer Tools -->
<svg width="800px" height="800px" viewBox="-0.04 0 20.153 20.153" xmlns="http://www.w3.org/2000/svg">
  <g id="minus-user-circle" transform="translate(-1.98 -2.009)">
    <path id="secondary" fill="#2ca9bc" d="M7,19.5a9,9,0,0,0,9.94,0A5,5,0,0,0,7,19.5Z"/>
    <path id="primary" d="M13,7.13A4.09,4.09,0,0,0,12,7a4,4,0,1,0,3.46,6" fill="none" stroke="#000000" stroke-linecap="round" stroke-linejoin="round" stroke-width="2"/>
    <path id="primary-2" data-name="primary" d="M12,15a5,5,0,0,0-5,4.5,9,9,0,0,0,9.94,0A5,5,0,0,0,12,15Zm5-6h4" fill="none" stroke="#000000" stroke-linecap="round" stroke-linejoin="round" stroke-width="2"/>
    <path id="primary-3" data-name="primary" d="M20.94,13a9,9,0,1,1-3.3-8" fill="none" stroke="#000000" stroke-linecap="round" stroke-linejoin="round" stroke-width="2"/>
  </g>
</svg>