<?xml version="1.0" encoding="utf-8"?><!-- Uploaded to: SVG Repo, www.svgrepo.com, Generator: SVG Repo Mixer Tools -->
<svg width="800px" height="800px" viewBox="-1.02 0 20.053 20.053" xmlns="http://www.w3.org/2000/svg">
  <g id="nut-2" transform="translate(-3 -1.974)">
    <path id="secondary" fill="#2ca9bc" d="M19.49,7.07l-7-3.94a1,1,0,0,0-1,0l-7,3.94A1,1,0,0,0,4,7.94v8.12a1,1,0,0,0,.51.87l7,3.94a1,1,0,0,0,1,0l7-3.94a1,1,0,0,0,.51-.87V7.94a1,1,0,0,0-.53-.87ZM12,15a3,3,0,1,1,3-3A3,3,0,0,1,12,15Z"/>
    <path id="primary" d="M9,12a3,3,0,1,1,3,3A3,3,0,0,1,9,12ZM4,16.06a1,1,0,0,0,.51.87l7,3.94a1,1,0,0,0,1,0l7-3.94a1,1,0,0,0,.51-.87V7.94a1,1,0,0,0-.51-.87l-7-3.94a1,1,0,0,0-1,0l-7,3.94A1,1,0,0,0,4,7.94Z" fill="none" stroke="#000000" stroke-linecap="round" stroke-linejoin="round" stroke-width="2"/>
  </g>
</svg>